<svg xmlns="http://www.w3.org/2000/svg" viewBox="-0.5 0.2 21.2 24.4" fill="currentColor"><path d="M18.5907 11.6251C18.5907 11.6251 19.3674 12.3251 19.3674 13.1501C19.3674 13.9751 19.3173 14.4251 19.0167 15.1501C18.716 15.9001 18.0646 17.0251 16.7617 17.3001L18.5907 11.6251Z"></path><path d="M7.49151 0.500061L5.06118 1.40006C5.06118 1.40006 4.56008 1.55006 4.40975 1.92506C4.25942 2.30006 3.43261 4.20006 3.43261 4.20006L2.90646 4.05006C2.90646 4.05006 2.53063 3.82506 1.85415 4.45006C1.47833 4.80006 0.8269 5.60006 0.426021 6.52506C-0.0500226 7.47506 -0.375737 8.82506 0.125362 9.27506C0.77679 9.62506 3.13195 10.8501 3.13195 10.8501C3.13195 10.8501 4.28448 9.52506 4.73547 8.30006C4.73547 8.30006 5.61239 7.07506 5.46206 4.82506L7.49151 0.500061Z"></path><path d="M15.9851 19.9751L20.2444 6.50006L7.84225 0.500061C7.84225 0.500061 7.61676 0.450061 7.44137 0.525061C7.16577 0.650061 6.73984 1.00006 6.48929 1.62506C6.13852 2.60006 5.23654 4.82506 5.23654 4.82506C5.23654 4.82506 5.73764 5.92506 4.73544 8.05006C3.70819 10.2501 3.68313 10.1501 3.28226 10.5501L0.626434 9.32506C0.626434 9.32506 0.701599 9.40006 0.701599 9.27506C0.701599 9.27506 0.476105 9.50006 0.0752258 9.32506L1.07742 9.87506L0.325775 11.6751L-0.225433 11.4001L-0.250488 12.3501L15.9851 19.9751Z"></path><path d="M-0.200439 12.1751L19.0919 21.2501C19.0919 21.2501 20.2444 21.8001 20.2694 22.7501C20.2945 23.7001 19.9187 24.3501 19.9187 24.3501H-0.200439V12.1751Z"></path></svg>
