<svg xmlns="http://www.w3.org/2000/svg" viewBox="2 -2 183 183" fill="currentColor"><path d="m51.3 55.4 1.3 1.3 3.3.7-.7 2.9 1.3 3.9-3.5.6-1.8 9.2 4.8.7-6 7.4.8.5 13.5-4.4 7.7-.3 1.3-2.4-2.9-1.6 3.3-3.7-1-3.2-3.8-1.7-.6-4.1-6.2-10-6.2-2.8 4.3-1.4 1.4-6.9-6.5.4 2.7-4.3-.4-1.7-3.3.7-2.4.2-5.6 11.6 5.9 5.7z"></path><path d="m45.8 73.1 1-4.3-1-4.3 2.5-3.5-1.8-4.3h-5.6l-2.5 2.7v3.1l-3.6-.5-.1 1.4.9.8-1.5 2.2 2.6 1.1-.7 2.1 1.2 1.7-3.1.8v4.9h4.3z"></path><path d="m93.4 131 1.7 3.3 1.5-1.7-.6-4.9z"></path><path d="m93 137.9-.9-.5-1.1.4 1.1 2.6v3.2l1.6 1.7 1.6-2.2.3-6.4h-1.1z"></path><path d="m110.5 150.2-5.5-1-.7.2 3.9 4.2 4.6 1.5.7-1.2-.9-1.1.9-3.1z"></path><path d="m136.4 139.5-2.3 2 2.5 3.4 1.9.3 1.2 2.9 1.2.6 1.1-5-1.3-2.2z"></path><path d="m93.3.3c-49.3 0-89.5 40.1-89.5 89.5 0 49.3 40.1 89.5 89.5 89.5s89.5-40.1 89.5-89.5c-.1-49.4-40.2-89.5-89.5-89.5zm0 171.3c-45.1 0-81.9-36.7-81.9-81.9 0-45.1 36.7-81.9 81.9-81.9 4.8 0 9.5.4 14.1 1.2l-7.4 21.6-10.9 2-3.5 8.7v10.8l7.1 2.9 8-9.7 6.9 13.7 2.5 4.9h2.5v-4.9l5.5-6.1 3.5-2 1-8.1-7.4-2.9 3.1-6.9 11.3-7-1.5-3.5 5.7-4c3.7 2.1 7.2 4.5 10.5 7.1l-5.8 1.1-5.1 6.6 5.6 6.9 11.7-3.6v6.9l-5.7 3.8-11.9 2.2 3.5 8.7-6.6-1.8-2.9 5.1-2.6 9.4-3.6-1.8-11.5 5.1-3.3-2-4.4 1.2-3.5-8.7 2.8-2.7-2.7-1.9-4.3 2.8 1.8 10.7-9.4 3.7-3.6 7.2-5 2.7-.4 3.5-6.2 2.6-3.5-1.6.7 4.1-8.3.6v2.2l7.9 3.4.2 2.6h1l-8.8 7-19.7-.4-4.7 2.9 3.8 8.3-3.8 11.4 1.9 1.8 1.5-1.1-.9 6.9 13 6.1 3.7 4 9.1-2.9 1.3 3.5 3-3.9 1.8-.2 2.8-11-1.7-3.7 4.2-4.1v-2.2l2.3.1 3.7-2.7-.5-.6 2.6-1.6 2.7.6 2 1.6 2.2-4.1 6.2-4.5.6 1.9.9 1.7 6.7 8.3 6.1 4.3 2.1 2.8 2 7.1-1.9 2.9.7.7 3.6-3.3 1.4-4.8-2.7-4.2.5-.7h2.2l2.9 1.5 1-.9-5-3.7-3-1.2-1.4-1.2-1.4-1.9-3.1-4.9-2.3-2.8-.2-2.3-.9-6.1 3.9-2.4 3.6-.6 1.4 1.1 1-.8 1.4 2.8 3.8 1.7 1.4-.4 7.1 9.1-.5 5.2 3.8 8 4.7.4 2.6 1.3-1.6-3.6-1.6-1.4-.1-4.1 2.7.9.6-1.7 5.3-.1 2.1.9 3.1-2 2.3.1-2.1-2.2-.4-4.5 2.5-5.6-3.6-2.6 4.1-4.2 3.8-.6 10.7-.5 6.5-1.7c-5.8 39.8-39.9 70.1-80.9 70.1z"></path></svg>
