<svg xmlns="http://www.w3.org/2000/svg" viewBox="-1 -1 113 113" fill="currentColor"><path d="M94.559,16.256A55.392,55.392,0,0,0,0,55.5,55.392,55.392,0,1,0,94.559,16.256m-2.434,76.05A51.949,51.949,0,0,1,3.443,55.5,51.949,51.949,0,1,1,92.125,92.305"></path><path d="M147.083,123.47a13.172,13.172,0,0,0,5.658-3.445,14.274,14.274,0,0,0,4.064-10.037,14.809,14.809,0,0,0-1.4-6.3,11.244,11.244,0,0,0-2.288-3.17,15.345,15.345,0,0,0-5.683-3.76,1.644,1.644,0,0,0-2.191,1.568,1.625,1.625,0,0,0,.617,1.286,10.949,10.949,0,0,1,.878.764q2.739,2.651,2.741,9.658,0,6.959-2.575,9.776a9.453,9.453,0,0,1-1.087,1.016,1.461,1.461,0,0,0-.573,1.136v.156a1.41,1.41,0,0,0,1.837,1.349" transform="translate(-92.973 -61.804)"></path><path d="M116.224,133.712a64.581,64.581,0,0,0-12-1.443q-7.134-.379-9.355-1.137-2.269-.709-2.268-2.461,0-2.694,5.209-3.617a2.525,2.525,0,0,0,2.06-2.493,2.62,2.62,0,0,0-.974-2,8.837,8.837,0,0,1-.957-.934q-2.5-2.841-2.5-8.947,0-6.582,2.174-9.849a7.179,7.179,0,0,1,1.713-1.815,1.41,1.41,0,0,0,.548-1.139A1.455,1.455,0,0,0,97.917,96.5,16.078,16.078,0,0,0,93,99.531a12.981,12.981,0,0,0-4.654,10.06,13.449,13.449,0,0,0,2.269,7.623,20.277,20.277,0,0,0,6.757,6.06q-8.647,1.61-8.647,7.812a6.117,6.117,0,0,0,3.024,5.255q3.023,2.082,13.183,2.509,8.836.378,12.286,2.272c2.3,1.293,5.324,3.518,5.324,6.675a9.748,9.748,0,0,1-2.736,6.3l-.069.077a.808.808,0,0,0-.164.471.828.828,0,0,0,.827.829.814.814,0,0,0,.537-.211l.071-.059a11.74,11.74,0,0,0,4.431-9.533,12.117,12.117,0,0,0-2.5-7.669,11.935,11.935,0,0,0-6.709-4.285" transform="translate(-56.551 -61.642)"></path><path d="M193.706,121.934c-2.542-.088-2.8-.563-2.8-.563a2.273,2.273,0,0,1-.927-1.665q-.128-1.088-.128-5.282V97.477a1.115,1.115,0,0,0-1.309-1.1l-7.6,1.355a.738.738,0,0,0-.609.728v.114a.738.738,0,0,0,.738.739h.125a8.426,8.426,0,0,1,2.508.256,2.105,2.105,0,0,1,1.15,1.28q.431,1.025.432,5.634v7.939q0,4.387-.112,5.3a2.167,2.167,0,0,1-.8,1.569,7.468,7.468,0,0,1-3.327.651.739.739,0,0,0,.023,1.478H193.68a.738.738,0,0,0,.737-.739v-.009a.739.739,0,0,0-.711-.738" transform="translate(-115.429 -61.613)"></path><path d="M190.609,69.691a3.2,3.2,0,1,0-3.192-3.2,3.2,3.2,0,0,0,3.192,3.2" transform="translate(-119.967 -40.47)"></path></svg>
