<svg xmlns="http://www.w3.org/2000/svg" viewBox="-2 -1 310 344" fill="currentColor"><path d="M 117.00,190.00 C 117.00,190.00 110.00,160.00 110.00,160.00 110.00,160.00 101.58,122.00 101.58,122.00 101.58,122.00 86.51,53.00 86.51,53.00 85.90,47.77 89.66,43.20 92.32,39.00 92.32,39.00 109.05,13.00 109.05,13.00 110.56,10.63 115.31,2.97 117.32,1.70 119.76,0.17 121.77,1.41 124.00,2.62 124.00,2.62 138.00,11.31 138.00,11.31 138.00,11.31 186.00,41.32 186.00,41.32 189.37,43.42 201.54,50.04 202.76,53.21 203.76,55.82 201.35,58.87 200.06,61.00 197.82,64.70 192.59,72.18 192.00,76.00 192.00,76.00 171.68,106.00 171.68,106.00 171.68,106.00 136.69,161.00 136.69,161.00 136.69,161.00 117.00,190.00 117.00,190.00 Z M 83.00,54.00 C 83.00,54.00 86.66,68.00 86.66,68.00 86.66,68.00 92.80,93.00 92.80,93.00 92.80,93.00 106.13,153.00 106.13,153.00 106.13,153.00 112.00,179.00 112.00,179.00 112.00,179.00 113.39,191.00 113.39,191.00 113.39,191.00 104.75,201.49 104.75,201.49 104.75,201.49 83.12,223.46 83.12,223.46 83.12,223.46 31.00,276.31 31.00,276.31 31.00,276.31 0.00,307.00 0.00,307.00 0.01,292.61 2.50,290.66 6.58,278.00 6.58,278.00 19.54,239.00 19.54,239.00 19.54,239.00 24.66,225.00 24.66,225.00 24.66,225.00 60.93,118.00 60.93,118.00 60.93,118.00 83.00,54.00 83.00,54.00 Z M 207.00,56.00 C 213.77,57.38 224.69,65.32 231.00,69.19 231.00,69.19 278.00,98.19 278.00,98.19 281.51,100.37 295.55,108.18 296.77,111.18 297.58,113.18 296.64,115.12 296.00,117.00 287.99,115.92 281.31,114.04 273.00,114.00 259.30,113.94 244.97,114.97 232.00,119.69 203.89,129.93 188.75,155.01 182.58,183.00 180.91,190.58 179.56,199.23 180.09,207.00 181.00,220.32 184.27,234.04 190.25,246.00 192.36,250.23 200.67,262.23 200.08,266.00 199.61,269.03 189.32,284.27 186.95,288.00 186.95,288.00 166.05,320.00 166.05,320.00 162.34,325.78 155.26,337.43 151.00,342.00 151.00,342.00 143.58,310.00 143.58,310.00 143.58,310.00 127.88,239.00 127.88,239.00 127.88,239.00 121.58,210.00 121.58,210.00 121.58,210.00 119.52,195.00 119.52,195.00 119.52,195.00 126.94,182.00 126.94,182.00 126.94,182.00 144.58,154.00 144.58,154.00 144.58,154.00 189.05,84.00 189.05,84.00 189.05,84.00 207.00,56.00 207.00,56.00 Z M 305.00,208.00 C 305.00,208.00 305.00,256.00 305.00,256.00 305.00,258.37 305.20,261.71 303.98,263.79 301.87,267.36 290.16,271.65 286.00,272.97 266.78,279.08 242.14,277.71 224.00,268.63 192.07,252.66 185.47,209.62 193.37,178.00 195.75,168.50 199.41,158.76 205.52,151.00 220.25,132.27 241.06,126.04 264.00,126.00 264.00,126.00 306.00,126.00 306.00,126.00 306.00,126.00 306.00,149.00 306.00,149.00 306.00,149.00 266.00,149.00 266.00,149.00 259.13,149.08 248.16,150.39 242.00,153.33 237.03,155.70 232.79,159.89 229.18,164.00 215.78,179.31 215.27,208.78 222.46,227.00 225.77,235.39 234.19,246.01 242.00,250.47 253.89,257.26 265.36,254.67 278.00,253.00 278.00,253.00 278.00,214.00 278.00,214.00 278.12,207.94 278.94,207.12 285.00,207.00 293.21,206.85 296.97,207.13 305.00,208.00 Z M 114.00,200.00 C 114.00,200.00 119.00,219.00 119.00,219.00 119.00,219.00 125.61,249.00 125.61,249.00 125.61,249.00 145.00,339.00 145.00,339.00 145.00,339.00 45.00,320.08 45.00,320.08 45.00,320.08 18.00,315.08 18.00,315.08 12.98,314.20 7.14,314.18 3.00,311.00 3.00,311.00 41.07,273.09 41.07,273.09 41.07,273.09 114.00,200.00 114.00,200.00 Z"></path></svg>
