<svg xmlns="http://www.w3.org/2000/svg" viewBox="0 0 23 51" fill="currentColor"> <path d="M 12.02,50.00 C 12.02,50.00 22.02,50.00 22.02,50.00 22.02,50.00 22.01,1.01 22.01,1.01 22.01,1.01 1.02,4.01 1.02,4.01 1.02,4.01 1.01,9.99 1.01,9.99 1.01,9.99 12.01,10.01 12.01,10.01 12.01,10.01 12.02,50.00 12.02,50.00 Z M 16.04,27.01 C 16.04,27.01 13.01,30.00 13.01,30.00 13.01,30.00 13.00,27.00 13.00,27.00 13.00,27.00 16.01,24.02 16.01,24.02 16.01,24.02 17.98,24.01 17.98,24.01 17.98,24.01 21.03,26.99 21.03,26.99 21.03,26.99 21.01,30.01 21.01,30.01 21.01,30.01 18.00,27.01 18.00,27.01 18.00,27.01 16.04,27.01 16.04,27.01 Z" /></svg>
