<svg xmlns="http://www.w3.org/2000/svg" viewBox="-1 -1 57 84" fill="currentColor"><path d="M26.8424 81.5588C27.0453 81.7617 27.3834 81.8969 27.6538 81.8969C27.789 81.8969 27.9243 81.8293 28.0595 81.7617C28.4652 81.6264 28.7356 81.2207 28.7356 80.7475V54.6487L54.902 28.4148C55.0372 28.3472 55.1048 28.212 55.1724 28.0767C55.24 27.9415 55.24 27.7387 55.24 27.5358V27.4006L55.0372 26.9949L54.8343 26.7921L28.3976 0.355296C28.1271 0.0848434 27.789 -0.0503831 27.451 0.0172302H27.3157C27.1129 0.0172302 26.9777 0.0848434 26.8424 0.22007L26.7072 0.355296L0.270439 26.7921C0.270439 26.8259 0.253536 26.8428 0.236633 26.8597C0.219729 26.8766 0.202826 26.8935 0.202826 26.9273C0.163945 26.9662 0.147423 26.9827 0.140401 27.0026C0.135213 27.0173 0.135213 27.0338 0.135213 27.0625L0.0675996 27.1978V27.2654C0.0675996 27.2654 -1.36942e-05 27.4006 -1.36942e-05 27.4682V54.1754V54.3107V54.4459C0.0675996 54.6487 0.135213 54.8516 0.270439 54.9868L26.8424 81.5588ZM26.5044 28.7529V51.4709L3.78633 28.7529H26.5044ZM28.7356 28.7529H51.4537L28.7356 51.4709V28.7529ZM51.4537 26.5216H28.7356V3.80357L51.4537 26.5216ZM26.5044 26.5216H3.78633L26.5044 3.80357V26.5216ZM26.5044 55.3249V78.0429L3.78633 55.3249H26.5044ZM2.16361 30.3756L24.8817 53.0936H2.16361V30.3756Z" clip-rule="evenodd" fill-rule="evenodd"></path></svg>
