<svg xmlns="http://www.w3.org/2000/svg" viewBox="105 7 135 126" fill="currentColor"><path d="M110.1,60.6c-4.9,7.4-2.9,13.4,0.8,19.1c0.1,0.2,0.2,0.3,0.3,0.5c2.5,4.6,5.7,10.2,8.9,15.9   c0.1,0.2,0.2,0.4,0.3,0.6c1.1,1.3,2.2,2.6,3.1,3.9c1.6-0.7,2.9-1.3,4.3-1.9c0,0,0-0.1,0.1-0.1c-0.7-0.4-1.3-0.8-1.9-1.2   c1.7-0.5,3.4-1.3,5.8,0.6c-1.8,0.3-2.9,0.4-3.9,0.6l0.1,0.1c-0.1,0-0.1,0-0.2,0.1c-0.6,1.7-1.3,3.3-2.1,5.3c2,3.4,3.5,7,4.9,10.9   c0.1,0.2,0.2,0.3,0.3,0.5c4.3,7.8,7.5,13.4,7.5,13.4s21.6,0,40.3,0c-0.1-0.4-0.2-0.7-0.3-1.1c0.8,0,1.8,0,2.8,0c0,0.4,0,0.7,0,1.1   c3.6,0,7,0,10.1,0c0.2,0,0.4,0,0.6,0c10.4,3.2,16.4-2.8,19.9-11.8c0.1-0.2,0.2-0.4,0.3-0.5c6.1-10.9,14.8-26.5,20.5-36.8   c0.2-0.3,0.3-0.6,0.5-0.9c5.2-6.9,5.2-11.9-0.2-19.3c-0.2-0.3-0.3-0.6-0.5-0.9c-3.5-6.4-8.2-14.8-12.7-22.9   c-0.5-0.8-0.9-1.7-1.4-2.5c-3-5.2-6-10.2-8.6-15.6c-0.3-0.6-0.7-1.2-1-1.7c-2.1-3.8-3.4-6.2-3.4-6.2s-4.4,0-11,0   c-0.2,0-0.4,0-0.6,0c-10.4,3.3-17.4,2.3-27.8,0c-0.2,0-0.5,0-0.7,0c-0.2,0-0.3,0-0.5,0c-0.2,0-0.3,0-0.5,0c-3.6,1.5-6.9,1.9-10,1.8   c-0.3,0-0.6,0-0.9-0.1c-5-0.4-10-3.4-15.3-2.3c0,0,0,0.1-0.1,0.2c-1.6,0.7-1.6,3.7-3.3,6c-0.1,0.3-0.2,0.5-0.3,0.8   c-0.5,1.1-0.9,2.2-1.3,3.4c-0.4,0.7-0.7,1.3-1.1,2c-2.7,4.9-6,10.8-9.3,16.8c-0.2,0.3-0.3,0.6-0.5,0.9c-2.7,4.8-3.7,10.8-7.6,14.6   c-0.2,0.3-0.3,0.5-0.5,0.8c-0.8,1.3-1.6,2.5-2.5,3.7c-0.1,0.2-0.3,0.5-0.4,0.7c-0.1,0.2-0.3,0.5-0.4,0.7   C110.4,60,110.2,60.3,110.1,60.6z M166.3,106.9c-1.6-1-2.8-1.7-4.2-2.5c1.6-0.8,3.2-1,4.5,0.3C166.8,105.1,166.4,106.1,166.3,106.9   z M183.4,115.4c1.3,0.2,2.3,0.6,2.5,1.3c0.6,1.6,1,3.3,1.2,5c0.1,0.4-1,0.9-2.1,1.9C184.3,120.3,183.8,117.8,183.4,115.4z    M172.6,105.4c-1.4,0.7-2.4,0.7-3.3,0c-1.6,0-2.6,0-2.6,0l1.2-1.9c0-0.1-0.1-0.1-0.1-0.2c0.1,0,0.2,0,0.2-0.1l22-33.8l-23.5-36.3   h24.8c0,0,1.6,2.9,3.9,7.1c0.1,0.2,0.2,0.3,0.3,0.5c1.1,1.9,2.2,3.9,3.2,6.1c0.1,0.3,0.3,0.5,0.4,0.8c1.8,7.1,5.6,12,9.8,17.7   c0.2,0.2,0.4,0.5,0.6,0.8c0.5,0.9,1.5,1.9,1.5,3.8c0,0-0.1,0.1-0.2,0.3c-2.8,4.9-4.8,8.9-7.5,13.6c-0.1,0.2-0.2,0.4-0.3,0.6   c-1.8,3.2-3.6,6.5-5.3,9.6c-0.1,0.3-0.3,0.5-0.4,0.8c-2.8,5.5-6.2,10.8-12,11c0.1,0.9-0.8,1.4-3,2.8c0.3-1.1,0.6-2.1,0.8-2.9   c-0.2,0-0.4,0-0.5-0.1c-0.2,0-0.4,0-0.6,0C178.9,105.4,175.4,105.4,172.6,105.4z M170,107.4c-0.2,1.5-0.6,2.9-3.1,2.3   C168.2,108.7,169.1,108,170,107.4z M161.8,119.5c2.4,0,4.2,0,6.2,0c0.5-3.1,3-1.5,4.6-1.8c0.8,2,1.4,3.8,2.1,5.7   c-0.9,0.3-1.2,0.5-1.3,0.5c-3.4-1.6-7.1-2.2-10.7-2.8C162.4,121,162.3,120.3,161.8,119.5z M156.2,105.1c-0.6-2.1,0.7-3.1,1.9-4.2   c0.7,1.5,1.2,2.7,1.9,4.2C158.6,105.1,157.5,105.1,156.2,105.1z M153.7,114.7c0.3-0.2,0.5-0.5,0.8-0.7c0.5,0.7,1,1.3,1.5,2   c-0.2,0.2-0.4,0.3-0.6,0.5C154.9,115.9,154.3,115.3,153.7,114.7z M152.9,107c1.4,0.7,2.9,0.1,3.3,2.1   C154.8,109.1,153.1,110.2,152.9,107z M151.1,104c0.5-1.7,0.9-3,1.5-5.1C153.9,101.9,153.8,102.2,151.1,104z M138.5,100   c0.5-1.2,1.5-2.3,2.3-3.3c0.2-0.2,0.8,0,1.1,0c-0.4,2.1-0.7,4-1.1,6.2C138.4,101.9,137.9,101.4,138.5,100z M134.1,117.7   c0.1-0.3,0.2-0.6,0.3-1c0.6,0.2,1.3,0.5,1.9,0.7c0,0-0.2,0.6-0.2,0.6C135.4,118,134.8,117.8,134.1,117.7z M134.2,107   c0.7,0.4,1.3,0.7,2.6,1.3C134.4,108.7,134.4,108.7,134.2,107z M132,69.4l14-25.2c0,0,5.5,8.4,10.1,15.6c0.1,0.2,0.2,0.4,0.4,0.6   c1.8,2.7,3.8,5.7,6.3,9.1c0,0-0.1,0.1-0.2,0.3c-2.3,4.3-4.3,7.3-7.3,10.5c-0.1,0.2-0.3,0.4-0.4,0.6c-3.7,3.2-4.7,10.2-9.7,13.2   c0-1,0-2-0.7-2.1c-0.1-0.3-0.3-0.6-0.5-0.9C140.2,84.1,132,69.4,132,69.4z"></path></svg>
