<svg xmlns="http://www.w3.org/2000/svg" viewBox="0 0 184 184" fill-rule="evenodd" fill="currentColor"> <path d="M 2.03,2.09 C 2.03,2.09 2.06,181.94 2.06,181.94 2.06,181.94 182.03,181.97 182.03,181.97 182.03,181.97 182.06,1.97 182.06,1.97 182.06,1.97 2.03,2.09 2.03,2.09 Z M 52.97,44.00 C 52.97,44.00 53.06,116.94 53.06,116.94 53.06,116.94 115.09,117.00 115.09,117.00 115.09,117.00 102.03,127.03 102.03,127.03 102.03,127.03 97.12,145.91 97.12,145.91 97.12,145.91 115.09,145.91 115.09,145.91 115.09,145.91 131.06,116.97 131.06,116.97 131.06,116.97 130.97,43.97 130.97,43.97 130.97,43.97 52.97,44.00 52.97,44.00 Z" /></svg>
