<svg xmlns="http://www.w3.org/2000/svg" viewBox="20 5 45 30" fill="currentColor"><path d="M40.1969 25.1196C39.7469 25.5696 39.2687 26.0478 38.7905 26.4698C36.2588 28.7482 32.4614 30.8861 30.858 30.5204C26.1322 29.4796 30.9705 20.0281 30.9705 20.0281C30.9705 20.0281 31.4768 18.8748 33.1083 18.0309L36.6526 16.737C39.775 15.5556 42.9536 14.4585 46.1604 13.3615C48.7764 12.4895 51.4206 11.6174 54.0085 10.8017C56.1182 10.1266 58.2841 9.42335 60.3938 8.72012C61.2377 8.43882 62.0535 8.01688 62.813 7.59494C62.9817 7.51055 63.1224 7.42616 63.2912 7.34178C63.5162 7.22926 63.6006 6.97609 63.6569 6.75106C63.685 6.6948 63.685 6.61041 63.7131 6.55415C63.7412 6.46976 63.7412 6.35725 63.7131 6.27286C63.6569 6.18847 63.5725 6.13221 63.4881 6.10408C63.4318 6.10408 63.3756 6.07595 63.3193 6.04782C63.1505 5.99157 62.9255 5.93531 62.7005 5.99156C57.7215 7.53868 52.6301 9.11393 47.7356 10.661L43.6006 11.955C42.1379 12.4051 40.647 12.8833 39.1562 13.3333C39.0999 13.3615 39.0155 13.3333 38.903 13.3333C38.9311 13.2489 38.9874 13.1646 39.0155 13.0802C39.1843 12.7989 39.3812 12.5176 39.55 12.2644C39.9438 11.6737 40.3657 11.083 40.5908 10.3798C40.9002 9.45148 40.7595 8.38256 40.2532 7.56681C39.8594 6.94796 39.2968 6.66667 38.7061 6.49789C37.1871 6.07595 35.4431 6.30099 33.7553 7.53868C31.1955 9.42335 29.5078 11.9831 27.82 14.6554C27.0886 15.8369 26.1885 17.0183 24.5851 17.5527C23.4037 17.9466 21.9128 18.4529 21.1533 19.9437C21.1533 19.9437 20.7314 21.4346 22.166 21.2658C23.0661 21.1533 23.91 20.7032 24.8102 20.3938C24.9508 20.3376 25.1196 20.2813 25.2602 20.225C25.2602 20.2532 25.2602 20.2532 25.2602 20.2813C25.1758 20.8439 25.0915 21.4065 24.9789 21.9691C24.7539 23.263 24.5289 24.6132 24.5007 25.9353C24.4445 28.4107 25.2884 30.6048 26.8917 32.2926C27.9607 33.4177 29.2546 33.9803 30.6048 33.9803C30.6048 33.9803 33.699 34.5148 38.7342 29.4515C40.0282 28.1575 40.9846 26.5542 42.0253 25.1477C42.0253 25.1477 43.3193 22.4473 41.1533 23.9944L40.1969 25.1196ZM36.3995 9.14206C36.3995 9.14206 37.7216 7.98875 37.7778 9.39522C37.8622 11.5049 36.8777 13.1927 34.7961 14.4023C34.3179 14.6835 33.7834 14.8805 33.2208 15.1055L32.1238 15.443C32.1238 15.4712 33.7272 10.8017 36.3995 9.14206Z"></path></svg>
