<svg xmlns="http://www.w3.org/2000/svg" viewBox="-0.5 -0.5 68 68" stroke="currentColor"><defs><style>.cls-1,.cls-2{fill:none;stroke-linejoin:round;}.cls-1{stroke-width:4.48px;}.cls-2{stroke-width:2.69px;}</style></defs><path d="M465.77,1832.37l-3.45-3.45a2.69,2.69,0,0,1,0-3.8l3.43-3.43" transform="translate(-459.3 -1793.68)" class="cls-1"></path><path d="M470,1817.44l3-3a2.69,2.69,0,0,1,3.8,0l10.67,10.67a2.69,2.69,0,0,1,0,3.8l-10.67,10.67a2.69,2.69,0,0,1-3.8,0l-3-3" transform="translate(-459.3 -1793.68)" class="cls-2"></path><path d="M519.53,1821.67l3.45,3.45a2.69,2.69,0,0,1,0,3.8l-3.43,3.43" transform="translate(-459.3 -1793.68)" class="cls-1"></path><path d="M515.3,1836.6l-3,3a2.69,2.69,0,0,1-3.8,0l-10.67-10.67a2.69,2.69,0,0,1,0-3.8l10.67-10.67a2.69,2.69,0,0,1,3.8,0l3,3" transform="translate(-459.3 -1793.68)" class="cls-2"></path><path d="M487.3,1800.15l3.45-3.45a2.69,2.69,0,0,1,3.8,0l3.43,3.43" transform="translate(-459.3 -1793.68)" class="cls-1"></path><path d="M502.23,1804.38l3,3a2.69,2.69,0,0,1,0,3.8l-10.67,10.67a2.69,2.69,0,0,1-3.8,0l-10.67-10.67a2.69,2.69,0,0,1,0-3.8l3-3" transform="translate(-459.3 -1793.68)" class="cls-2"></path><path d="M498,1853.91l-3.45,3.45a2.69,2.69,0,0,1-3.8,0l-3.43-3.43" transform="translate(-459.3 -1793.68)" class="cls-1"></path><path d="M483.07,1849.68l-3-3a2.69,2.69,0,0,1,0-3.8l10.67-10.67a2.69,2.69,0,0,1,3.8,0l10.67,10.67a2.69,2.69,0,0,1,0,3.8l-3,3" transform="translate(-459.3 -1793.68)" class="cls-2"></path></svg>
