<svg xmlns="http://www.w3.org/2000/svg" viewBox="33 42.5 114 95" fill="currentColor"> <path d="M 34.00,43.01 C 34.00,43.01 64.01,43.00 64.01,43.00 64.01,43.00 64.00,137.01 64.00,137.01 64.00,137.01 47.99,137.01 47.99,137.01 47.99,137.01 48.00,58.01 48.00,58.01 48.00,58.01 34.00,58.01 34.00,58.01 34.01,58.01 34.00,43.01 34.00,43.01 Z M 146.00,85.98 C 146.00,85.98 123.05,101.02 123.03,101.00 123.02,100.98 122.95,136.98 122.96,136.98 122.96,136.97 107.04,136.99 107.04,137.00 107.04,137.01 107.00,43.00 107.00,43.00 107.00,43.00 146.02,43.00 146.02,43.00 146.02,43.00 146.00,85.98 146.00,85.98 Z M 66.00,137.00 C 66.00,137.00 66.00,43.01 66.00,43.01 66.00,43.01 105.00,42.98 105.00,42.98 105.00,42.98 105.02,70.00 105.02,70.00 105.02,70.00 90.01,78.02 90.01,78.02 90.01,78.02 90.00,58.00 90.00,58.00 90.00,58.00 81.00,58.01 81.00,58.01 81.00,58.01 80.99,121.99 80.99,121.99 80.99,121.99 90.02,122.00 90.02,122.00 90.02,122.00 89.99,98.00 89.99,98.00 89.99,98.00 84.00,102.00 84.00,102.00 84.00,102.00 84.01,87.99 84.01,88.00 84.01,88.01 104.99,74.00 104.99,74.00 104.99,74.00 105.00,137.00 105.00,137.00 105.00,137.00 66.00,137.00 66.00,137.00 Z M 131.00,78.99 C 130.99,78.99 131.02,58.00 130.99,58.00 130.96,58.00 122.00,58.00 122.00,58.00 122.00,58.00 121.99,85.99 122.00,86.00 122.01,86.01 131.00,78.99 131.00,78.99 Z M 122.00,86.00 122.00,86.00 122.00,86.00 122.00,86.00" /></svg>
