<svg xmlns="http://www.w3.org/2000/svg" version="1.1" xmlns:xlink="http://www.w3.org/1999/xlink" xmlns:svgjs="http://svgjs.dev/svgjs" width="964" height="964"><svg xmlns="http://www.w3.org/2000/svg" viewBox="0 0 964 964"><path fill="currentColor" d="M 481.00,683.00 C 476.42,689.40 468.17,696.09 462.00,701.25 446.64,714.09 431.53,723.80 414.00,733.31 367.74,758.38 325.01,766.08 273.00,766.00 273.00,766.00 261.00,765.09 261.00,765.09 239.24,763.60 217.92,760.51 197.00,753.98 197.00,753.98 183.00,748.43 183.00,748.43 153.20,736.86 126.67,722.27 102.00,701.72 70.82,675.74 43.28,640.97 26.31,604.00 -12.31,519.89 -9.01,417.03 38.45,337.00 61.47,298.17 90.48,268.30 128.00,243.33 156.78,224.18 196.73,207.79 231.00,202.44 231.00,202.44 245.00,201.72 245.00,201.72 245.00,201.72 266.00,199.91 266.00,199.91 266.00,199.91 276.00,199.00 276.00,199.00 308.01,198.63 339.28,201.43 370.00,211.02 378.31,213.62 377.78,214.47 384.00,216.94 421.73,231.91 453.20,252.20 482.00,281.00 487.49,273.33 497.52,265.38 505.00,259.40 522.83,245.14 542.26,233.19 563.00,223.69 582.96,214.55 605.33,206.88 627.00,203.08 627.00,203.08 644.00,201.72 644.00,201.72 644.00,201.72 665.00,199.91 665.00,199.91 665.00,199.91 677.00,199.00 677.00,199.00 708.83,198.95 739.49,201.45 770.00,211.34 770.00,211.34 783.00,216.80 783.00,216.80 812.81,229.03 836.02,241.66 861.00,262.43 890.80,287.22 915.84,318.29 933.19,353.00 977.68,441.98 972.21,553.28 918.31,637.00 896.91,670.24 868.85,698.11 836.00,720.00 806.64,739.56 767.88,755.70 733.00,761.57 733.00,761.57 700.00,765.09 700.00,765.09 700.00,765.09 690.00,766.00 690.00,766.00 658.29,766.37 627.51,763.48 597.00,754.28 597.00,754.28 581.00,747.81 581.00,747.81 541.55,732.35 511.11,713.11 481.00,683.00 Z M 449.00,354.00 C 444.27,350.31 441.09,345.33 436.96,341.00 428.15,331.74 419.19,322.65 409.00,314.88 377.16,290.60 331.46,272.06 291.00,272.00 291.00,272.00 271.00,272.00 271.00,272.00 246.62,272.29 217.07,280.59 195.00,290.69 170.76,301.79 148.32,317.43 130.09,337.00 54.93,417.68 54.93,546.32 130.09,627.00 148.32,646.57 170.76,662.21 195.00,673.31 217.07,683.41 246.62,691.71 271.00,692.00 271.00,692.00 291.00,692.00 291.00,692.00 331.46,691.94 377.16,673.40 409.00,649.12 419.19,641.35 428.15,632.26 436.96,623.00 441.09,618.67 444.27,613.69 449.00,610.00 449.00,610.00 470.22,658.00 470.22,658.00 470.22,658.00 482.00,682.00 482.00,682.00 482.00,682.00 502.31,637.00 502.31,637.00 502.31,637.00 514.00,610.00 514.00,610.00 514.00,610.00 516.00,610.00 516.00,610.00 519.33,616.23 524.12,620.75 528.72,626.00 544.58,644.08 566.52,659.51 588.00,670.25 668.42,710.46 768.42,694.36 830.96,629.00 851.03,608.02 866.20,583.10 876.42,556.00 882.98,538.61 886.74,520.50 888.09,502.00 888.09,502.00 889.00,492.00 889.00,492.00 889.21,473.88 888.63,455.82 885.00,438.00 875.04,389.15 846.93,343.85 807.00,313.89 736.46,260.99 639.62,257.25 566.00,306.33 551.96,315.69 539.07,326.42 527.84,339.00 523.44,343.92 519.15,348.11 516.00,354.00 516.00,354.00 514.00,354.00 514.00,354.00 514.00,354.00 493.31,307.00 493.31,307.00 493.31,307.00 481.00,282.00 481.00,282.00 481.00,282.00 460.69,327.00 460.69,327.00 460.69,327.00 449.00,354.00 449.00,354.00 Z M 240.00,444.00 C 240.00,444.00 240.00,384.00 240.00,384.00 240.09,377.07 241.73,370.28 247.18,365.53 252.42,360.97 260.31,360.03 267.00,360.00 267.00,360.00 288.00,360.00 288.00,360.00 301.34,360.00 317.68,358.79 322.36,375.00 323.11,377.57 323.00,380.35 323.00,383.00 323.00,383.00 323.00,435.00 323.00,435.00 323.06,443.74 324.76,443.98 333.00,444.00 333.00,444.00 386.00,444.00 386.00,444.00 401.08,444.19 406.93,455.35 407.00,469.00 407.00,469.00 407.00,491.00 407.00,491.00 407.00,504.98 408.67,520.44 392.00,525.78 388.04,527.05 385.07,526.99 381.00,527.00 381.00,527.00 323.00,527.00 323.00,527.00 323.00,527.00 323.00,587.00 323.00,587.00 322.98,601.43 315.96,609.82 301.00,610.00 301.00,610.00 263.00,610.00 263.00,610.00 252.48,609.95 244.26,605.73 241.17,595.00 239.39,588.81 240.00,577.79 240.00,571.00 240.00,571.00 240.00,527.00 240.00,527.00 240.00,527.00 182.00,527.00 182.00,527.00 174.52,526.96 167.57,525.83 162.34,519.91 155.55,512.22 157.00,501.47 157.00,492.00 157.00,492.00 157.00,475.00 157.00,475.00 157.00,462.93 156.67,449.23 171.00,444.80 173.92,443.90 176.98,444.00 180.00,444.00 180.00,444.00 240.00,444.00 240.00,444.00 Z M 679.00,360.44 C 710.63,357.91 731.67,392.24 718.68,420.00 711.83,434.62 698.60,442.21 683.00,443.70 678.82,444.10 671.00,442.71 667.00,441.30 642.78,432.76 632.91,404.41 644.37,382.00 651.80,367.49 663.94,362.62 679.00,360.44 Z M 589.00,444.47 C 597.56,443.27 607.02,443.54 615.00,447.04 650.14,462.45 646.05,515.15 610.00,525.07 606.50,526.04 599.59,527.12 596.00,526.91 557.18,524.65 541.72,474.99 573.00,451.76 578.16,447.92 582.78,445.93 589.00,444.47 Z M 756.00,444.46 C 764.10,443.34 773.41,443.62 781.00,446.88 815.77,461.81 813.56,514.04 777.00,524.96 773.30,526.06 766.84,527.13 763.00,526.91 751.04,526.23 740.05,521.24 732.32,512.00 717.90,494.77 720.03,466.69 738.00,452.68 743.57,448.34 749.18,445.98 756.00,444.46 Z M 673.00,527.46 C 680.56,526.42 688.84,526.66 696.00,529.46 701.53,531.62 706.77,534.76 710.91,539.04 734.27,563.21 721.31,603.54 688.00,609.54 646.22,617.06 622.45,562.72 654.01,536.47 659.72,531.72 665.82,529.06 673.00,527.46 Z"></path></svg><style>@media (prefers-color-scheme: light) { :root { filter: contrast(1) brightness(0.1); } }
@media (prefers-color-scheme: dark) { :root { filter: contrast(0.3846153846153846) brightness(4.5); } }
</style></svg>